<svg xmlns="http://www.w3.org/2000/svg" xmlns:xlink="http://www.w3.org/1999/xlink" width="1000" zoomAndPan="magnify" viewBox="0 0 750 225" height="300" preserveAspectRatio="xMidYMid meet" version="1.0"><defs><g/></defs><g fill="#6c3aed" fill-opacity="1"><g transform="translate(65.568517, 161.256757)"><g><path d="M 43.140625 10.359375 C 37.710938 10.359375 32.742188 9.6875 28.234375 8.34375 C 23.722656 7.007812 19.863281 5.070312 16.65625 2.53125 C 13.445312 0 10.941406 -3.097656 9.140625 -6.765625 C 7.347656 -10.429688 6.453125 -14.59375 6.453125 -19.25 C 6.453125 -24.039062 7.5625 -28.921875 9.78125 -33.890625 C 12 -38.859375 15.222656 -43.457031 19.453125 -47.6875 L 21.46875 -45.6875 C 19.28125 -42.863281 17.460938 -39.476562 16.015625 -35.53125 C 14.578125 -31.582031 13.859375 -27.390625 13.859375 -22.953125 C 13.859375 -19.347656 14.398438 -15.800781 15.484375 -12.3125 C 16.578125 -8.820312 18.285156 -5.703125 20.609375 -2.953125 C 22.941406 -0.210938 25.957031 2 29.65625 3.6875 C 33.363281 5.382812 37.859375 6.234375 43.140625 6.234375 C 43.566406 6.234375 43.988281 6.195312 44.40625 6.125 C 44.832031 6.0625 45.257812 6.03125 45.6875 6.03125 C 43.5 -0.59375 41.539062 -8.695312 39.8125 -18.28125 C 38.082031 -27.875 37.21875 -39.015625 37.21875 -51.703125 C 37.21875 -63.546875 37.921875 -73.976562 39.328125 -83 C 40.742188 -92.03125 42.398438 -99.820312 44.296875 -106.375 C 46.203125 -112.9375 48.160156 -118.347656 50.171875 -122.609375 C 52.179688 -126.867188 53.785156 -130.164062 54.984375 -132.5 L 58.046875 -131.859375 C 57.410156 -128.828125 56.597656 -124.6875 55.609375 -119.4375 C 54.628906 -114.1875 53.660156 -107.734375 52.703125 -100.078125 C 51.753906 -92.429688 50.925781 -83.5 50.21875 -73.28125 C 49.519531 -63.0625 49.171875 -51.5 49.171875 -38.59375 C 49.171875 -31.332031 49.378906 -24.019531 49.796875 -16.65625 C 50.222656 -9.289062 50.859375 -1.867188 51.703125 5.609375 C 60.234375 4.691406 68.195312 2.539062 75.59375 -0.84375 C 83 -4.226562 89.75 -8.492188 95.84375 -13.640625 C 101.945312 -18.785156 107.359375 -24.632812 112.078125 -31.1875 C 116.804688 -37.75 120.804688 -44.660156 124.078125 -51.921875 C 127.359375 -59.179688 129.84375 -66.617188 131.53125 -74.234375 C 133.226562 -81.847656 134.078125 -89.285156 134.078125 -96.546875 C 134.078125 -106.128906 132.597656 -114.335938 129.640625 -121.171875 C 126.679688 -128.015625 122.835938 -133.601562 118.109375 -137.9375 C 113.390625 -142.28125 108.050781 -145.453125 102.09375 -147.453125 C 96.132812 -149.460938 90.195312 -150.46875 84.28125 -150.46875 C 78.425781 -150.46875 72.992188 -150.078125 67.984375 -149.296875 C 62.984375 -148.523438 58.382812 -147.503906 54.1875 -146.234375 C 50 -144.972656 46.191406 -143.546875 42.765625 -141.953125 C 39.347656 -140.367188 36.300781 -138.734375 33.625 -137.046875 C 27.28125 -133.097656 22.0625 -128.617188 17.96875 -123.609375 L 14.484375 -126.046875 C 14.554688 -126.179688 15.207031 -126.988281 16.4375 -128.46875 C 17.675781 -129.957031 19.53125 -131.757812 22 -133.875 C 24.46875 -135.988281 27.585938 -138.242188 31.359375 -140.640625 C 35.128906 -143.035156 39.566406 -145.269531 44.671875 -147.34375 C 49.785156 -149.425781 55.632812 -151.15625 62.21875 -152.53125 C 68.8125 -153.90625 76.164062 -154.59375 84.28125 -154.59375 C 94.007812 -154.59375 102.710938 -153.320312 110.390625 -150.78125 C 118.078125 -148.25 124.582031 -144.5 129.90625 -139.53125 C 135.226562 -134.5625 139.296875 -128.425781 142.109375 -121.125 C 144.929688 -113.832031 146.34375 -105.425781 146.34375 -95.90625 C 146.34375 -84.769531 144.894531 -74.53125 142 -65.1875 C 139.113281 -55.851562 135.238281 -47.394531 130.375 -39.8125 C 125.507812 -32.226562 119.90625 -25.546875 113.5625 -19.765625 C 107.21875 -13.992188 100.554688 -9.046875 93.578125 -4.921875 C 86.597656 -0.796875 79.546875 2.476562 72.421875 4.90625 C 65.304688 7.34375 58.578125 8.953125 52.234375 9.734375 C 52.441406 11.066406 52.648438 12.332031 52.859375 13.53125 C 53.078125 14.726562 53.289062 16 53.5 17.34375 L 50.015625 17.765625 C 49.585938 16.640625 49.109375 15.441406 48.578125 14.171875 C 48.054688 12.898438 47.515625 11.5625 46.953125 10.15625 C 46.316406 10.289062 45.679688 10.359375 45.046875 10.359375 C 44.410156 10.359375 43.773438 10.359375 43.140625 10.359375 Z M 43.140625 10.359375 "/></g></g></g><g fill="#6c3aed" fill-opacity="1"><g transform="translate(217.416046, 161.256757)"><g><path d="M 48.109375 -2.4375 C 48.109375 -11.457031 48.53125 -19.878906 49.375 -27.703125 C 47.195312 -23.753906 45.082031 -20.507812 43.03125 -17.96875 C 40.988281 -15.4375 38.960938 -13.429688 36.953125 -11.953125 C 34.941406 -10.472656 32.914062 -9.445312 30.875 -8.875 C 28.832031 -8.3125 26.753906 -8.03125 24.640625 -8.03125 C 22.941406 -8.03125 21.019531 -8.296875 18.875 -8.828125 C 16.726562 -9.359375 14.703125 -10.429688 12.796875 -12.046875 C 10.890625 -13.671875 9.285156 -15.976562 7.984375 -18.96875 C 6.679688 -21.96875 6.03125 -25.972656 6.03125 -30.984375 C 6.03125 -36.203125 6.660156 -41.15625 7.921875 -45.84375 C 9.191406 -50.53125 10.640625 -54.671875 12.265625 -58.265625 C 14.097656 -62.492188 16.210938 -66.40625 18.609375 -70 L 22.515625 -68.625 C 22.378906 -68.414062 21.921875 -67.128906 21.140625 -64.765625 C 20.367188 -62.398438 19.539062 -59.4375 18.65625 -55.875 C 17.78125 -52.320312 16.972656 -48.410156 16.234375 -44.140625 C 15.492188 -39.878906 15.125 -35.773438 15.125 -31.828125 C 15.125 -25.910156 16.195312 -21.1875 18.34375 -17.65625 C 20.5 -14.132812 23.550781 -12.375 27.5 -12.375 C 29.613281 -12.375 31.691406 -13.078125 33.734375 -14.484375 C 35.773438 -15.898438 37.78125 -17.859375 39.75 -20.359375 C 41.726562 -22.859375 43.703125 -25.816406 45.671875 -29.234375 C 47.648438 -32.648438 49.59375 -36.40625 51.5 -40.5 C 52.832031 -47.476562 54.429688 -53.679688 56.296875 -59.109375 C 58.171875 -64.535156 60.128906 -69.15625 62.171875 -72.96875 L 66.09375 -71.90625 C 64.675781 -65.769531 63.4375 -59.6875 62.375 -53.65625 C 61.320312 -47.632812 60.425781 -41.769531 59.6875 -36.0625 C 58.945312 -30.351562 58.363281 -24.835938 57.9375 -19.515625 C 57.519531 -14.191406 57.207031 -9.203125 57 -4.546875 C 60.03125 -6.734375 62.863281 -9.164062 65.5 -11.84375 C 68.144531 -14.519531 70.738281 -17.691406 73.28125 -21.359375 C 75.820312 -25.023438 78.34375 -29.320312 80.84375 -34.25 C 83.34375 -39.1875 85.929688 -45.003906 88.609375 -51.703125 L 92.734375 -50.65625 C 89.984375 -43.53125 87.320312 -37.34375 84.75 -32.09375 C 82.175781 -26.84375 79.5 -22.222656 76.71875 -18.234375 C 73.9375 -14.253906 70.957031 -10.710938 67.78125 -7.609375 C 64.601562 -4.503906 61.007812 -1.546875 57 1.265625 C 56.78125 9.023438 56.070312 15.863281 54.875 21.78125 C 53.675781 27.707031 52.195312 32.875 50.4375 37.28125 C 48.675781 41.6875 46.703125 45.367188 44.515625 48.328125 C 42.328125 51.285156 40.140625 53.679688 37.953125 55.515625 C 35.773438 57.347656 33.644531 58.648438 31.5625 59.421875 C 29.476562 60.203125 27.695312 60.59375 26.21875 60.59375 C 23.613281 60.59375 21.269531 60.046875 19.1875 58.953125 C 17.113281 57.859375 15.332031 56.429688 13.84375 54.671875 C 12.363281 52.910156 11.238281 50.898438 10.46875 48.640625 C 9.695312 46.390625 9.3125 44.097656 9.3125 41.765625 C 9.3125 37.742188 10.28125 33.953125 12.21875 30.390625 C 14.15625 26.835938 16.742188 23.472656 19.984375 20.296875 C 23.222656 17.128906 26.941406 14.148438 31.140625 11.359375 C 35.335938 8.578125 39.691406 5.953125 44.203125 3.484375 C 45.535156 2.566406 46.835938 1.828125 48.109375 1.265625 Z M 26.4375 56.25 C 28.6875 56.25 30.992188 55.347656 33.359375 53.546875 C 35.722656 51.753906 37.910156 48.898438 39.921875 44.984375 C 41.929688 41.078125 43.65625 36.039062 45.09375 29.875 C 46.539062 23.707031 47.476562 16.285156 47.90625 7.609375 C 47.6875 7.753906 47.453125 7.878906 47.203125 7.984375 C 46.960938 8.085938 46.738281 8.242188 46.53125 8.453125 C 42.9375 10.710938 39.375 13.195312 35.84375 15.90625 C 32.320312 18.625 29.164062 21.535156 26.375 24.640625 C 23.59375 27.742188 21.320312 31.003906 19.5625 34.421875 C 17.800781 37.835938 16.921875 41.378906 16.921875 45.046875 C 16.921875 46.316406 17.148438 47.617188 17.609375 48.953125 C 18.066406 50.296875 18.71875 51.515625 19.5625 52.609375 C 20.40625 53.703125 21.410156 54.582031 22.578125 55.25 C 23.742188 55.914062 25.03125 56.25 26.4375 56.25 Z M 26.4375 56.25 "/></g></g><g transform="translate(295.983395, 161.256757)"><g><path d="M 33.09375 -1.484375 C 29.5 -1.484375 26.046875 -2.113281 22.734375 -3.375 C 19.421875 -4.644531 16.507812 -6.566406 14 -9.140625 C 11.5 -11.710938 9.507812 -14.9375 8.03125 -18.8125 C 6.550781 -22.695312 5.8125 -27.25 5.8125 -32.46875 C 5.8125 -38.8125 6.726562 -44.46875 8.5625 -49.4375 C 10.394531 -54.40625 12.738281 -58.597656 15.59375 -62.015625 C 18.445312 -65.429688 21.632812 -68.039062 25.15625 -69.84375 C 28.6875 -71.644531 32.144531 -72.546875 35.53125 -72.546875 C 39.894531 -72.546875 43.363281 -71.097656 45.9375 -68.203125 C 48.519531 -65.316406 49.8125 -61.582031 49.8125 -57 C 49.8125 -53.050781 49.066406 -49.472656 47.578125 -46.265625 C 46.097656 -43.054688 44.140625 -40.304688 41.703125 -38.015625 C 39.273438 -35.722656 36.492188 -33.941406 33.359375 -32.671875 C 30.222656 -31.398438 26.960938 -30.765625 23.578125 -30.765625 C 21.960938 -30.765625 20.429688 -30.851562 18.984375 -31.03125 C 17.535156 -31.207031 16.25 -31.40625 15.125 -31.625 C 15.539062 -27.25 16.382812 -23.472656 17.65625 -20.296875 C 18.925781 -17.128906 20.507812 -14.519531 22.40625 -12.46875 C 24.3125 -10.425781 26.445312 -8.910156 28.8125 -7.921875 C 31.175781 -6.941406 33.628906 -6.453125 36.171875 -6.453125 C 39.335938 -6.453125 42.257812 -7.226562 44.9375 -8.78125 C 47.613281 -10.332031 50.082031 -12.359375 52.34375 -14.859375 C 54.601562 -17.359375 56.664062 -20.226562 58.53125 -23.46875 C 60.394531 -26.71875 62.066406 -30.015625 63.546875 -33.359375 C 65.023438 -36.710938 66.347656 -39.988281 67.515625 -43.1875 C 68.679688 -46.394531 69.722656 -49.234375 70.640625 -51.703125 L 74.765625 -50.65625 C 73.847656 -48.320312 72.769531 -45.5 71.53125 -42.1875 C 70.300781 -38.875 68.875 -35.398438 67.25 -31.765625 C 65.632812 -28.140625 63.734375 -24.507812 61.546875 -20.875 C 59.359375 -17.25 56.890625 -14.007812 54.140625 -11.15625 C 51.390625 -8.300781 48.269531 -5.972656 44.78125 -4.171875 C 41.289062 -2.378906 37.394531 -1.484375 33.09375 -1.484375 Z M 35.734375 -68.421875 C 33.128906 -68.421875 30.578125 -67.59375 28.078125 -65.9375 C 25.578125 -64.28125 23.335938 -62.003906 21.359375 -59.109375 C 19.390625 -56.222656 17.785156 -52.804688 16.546875 -48.859375 C 15.316406 -44.910156 14.703125 -40.679688 14.703125 -36.171875 C 15.617188 -35.816406 16.90625 -35.515625 18.5625 -35.265625 C 20.21875 -35.015625 22.242188 -34.890625 24.640625 -34.890625 C 27.171875 -34.890625 29.6875 -35.4375 32.1875 -36.53125 C 34.695312 -37.625 36.957031 -39.140625 38.96875 -41.078125 C 40.976562 -43.015625 42.597656 -45.320312 43.828125 -48 C 45.066406 -50.6875 45.6875 -53.613281 45.6875 -56.78125 C 45.6875 -58.332031 45.472656 -59.8125 45.046875 -61.21875 C 44.617188 -62.632812 43.984375 -63.867188 43.140625 -64.921875 C 42.296875 -65.984375 41.253906 -66.832031 40.015625 -67.46875 C 38.785156 -68.101562 37.359375 -68.421875 35.734375 -68.421875 Z M 35.734375 -68.421875 "/></g></g><g transform="translate(356.574366, 161.256757)"><g><path d="M 46.53125 -133.234375 C 46.53125 -128.796875 46.015625 -124.070312 44.984375 -119.0625 C 43.960938 -114.0625 42.625 -108.988281 40.96875 -103.84375 C 39.3125 -98.695312 37.410156 -93.515625 35.265625 -88.296875 C 33.117188 -83.078125 30.953125 -78.070312 28.765625 -73.28125 C 26.578125 -68.488281 24.425781 -63.941406 22.3125 -59.640625 C 20.195312 -55.335938 18.328125 -51.492188 16.703125 -48.109375 C 16.984375 -42.328125 17.476562 -37.109375 18.1875 -32.453125 C 18.894531 -27.804688 19.773438 -23.84375 20.828125 -20.5625 C 21.890625 -17.289062 23.160156 -14.769531 24.640625 -13 C 26.117188 -11.238281 27.8125 -10.359375 29.71875 -10.359375 C 31.832031 -10.359375 33.925781 -11.34375 36 -13.3125 C 38.082031 -15.289062 40.179688 -18.078125 42.296875 -21.671875 C 44.410156 -25.273438 46.5625 -29.613281 48.75 -34.6875 C 50.9375 -39.757812 53.15625 -45.429688 55.40625 -51.703125 L 59.53125 -50.65625 C 57.84375 -45.789062 55.941406 -40.660156 53.828125 -35.265625 C 51.710938 -29.867188 49.347656 -24.914062 46.734375 -20.40625 C 44.128906 -15.894531 41.289062 -12.160156 38.21875 -9.203125 C 35.15625 -6.242188 31.863281 -4.765625 28.34375 -4.765625 C 24.8125 -4.765625 21.847656 -5.851562 19.453125 -8.03125 C 17.054688 -10.21875 15.082031 -13.09375 13.53125 -16.65625 C 11.976562 -20.21875 10.78125 -24.269531 9.9375 -28.8125 C 9.09375 -33.363281 8.457031 -38 8.03125 -42.71875 C 7.613281 -47.445312 7.367188 -52.046875 7.296875 -56.515625 C 7.222656 -60.992188 7.1875 -64.960938 7.1875 -68.421875 C 7.1875 -74.828125 7.453125 -81.203125 7.984375 -87.546875 C 8.515625 -93.898438 9.328125 -99.96875 10.421875 -105.75 C 11.515625 -111.53125 12.832031 -116.90625 14.375 -121.875 C 15.925781 -126.84375 17.742188 -131.140625 19.828125 -134.765625 C 21.910156 -138.398438 24.203125 -141.238281 26.703125 -143.28125 C 29.203125 -145.320312 31.929688 -146.34375 34.890625 -146.34375 C 37.003906 -146.34375 38.800781 -145.988281 40.28125 -145.28125 C 41.769531 -144.582031 42.972656 -143.632812 43.890625 -142.4375 C 44.804688 -141.238281 45.472656 -139.84375 45.890625 -138.25 C 46.316406 -136.664062 46.53125 -134.992188 46.53125 -133.234375 Z M 16.078125 -72.328125 C 16.078125 -69.648438 16.078125 -67.023438 16.078125 -64.453125 C 16.078125 -61.878906 16.144531 -59.394531 16.28125 -57 C 18.039062 -60.519531 19.90625 -64.375 21.875 -68.5625 C 23.851562 -72.757812 25.8125 -77.097656 27.75 -81.578125 C 29.695312 -86.054688 31.550781 -90.585938 33.3125 -95.171875 C 35.070312 -99.753906 36.617188 -104.25 37.953125 -108.65625 C 39.296875 -113.0625 40.375 -117.253906 41.1875 -121.234375 C 42 -125.210938 42.40625 -128.828125 42.40625 -132.078125 C 42.40625 -133.128906 42.316406 -134.253906 42.140625 -135.453125 C 41.960938 -136.648438 41.644531 -137.757812 41.1875 -138.78125 C 40.726562 -139.8125 40.078125 -140.660156 39.234375 -141.328125 C 38.390625 -141.992188 37.296875 -142.328125 35.953125 -142.328125 C 33.273438 -142.328125 30.71875 -140.582031 28.28125 -137.09375 C 25.851562 -133.601562 23.738281 -128.753906 21.9375 -122.546875 C 20.144531 -116.347656 18.71875 -108.96875 17.65625 -100.40625 C 16.601562 -91.84375 16.078125 -82.484375 16.078125 -72.328125 Z M 16.078125 -72.328125 "/></g></g><g transform="translate(402.04403, 161.256757)"><g><path d="M 36.375 -9.515625 C 40.320312 -9.515625 44.109375 -10.957031 47.734375 -13.84375 C 51.367188 -16.738281 54.207031 -20.9375 56.25 -26.4375 L 55.40625 -26.4375 C 51.039062 -26.4375 47.003906 -27.175781 43.296875 -28.65625 C 39.597656 -30.132812 36.390625 -32.195312 33.671875 -34.84375 C 30.960938 -37.488281 28.832031 -40.660156 27.28125 -44.359375 C 25.726562 -48.054688 24.953125 -52.128906 24.953125 -56.578125 C 24.953125 -59.046875 25.285156 -61.546875 25.953125 -64.078125 C 26.628906 -66.617188 27.671875 -68.894531 29.078125 -70.90625 C 30.484375 -72.914062 32.316406 -74.550781 34.578125 -75.8125 C 36.835938 -77.082031 39.515625 -77.71875 42.609375 -77.71875 C 45.148438 -77.71875 47.65625 -77.207031 50.125 -76.1875 C 52.59375 -75.164062 54.8125 -73.421875 56.78125 -70.953125 C 58.757812 -68.484375 60.363281 -65.148438 61.59375 -60.953125 C 62.832031 -56.765625 63.453125 -51.460938 63.453125 -45.046875 C 63.453125 -42.648438 63.34375 -40.269531 63.125 -37.90625 C 62.914062 -35.539062 62.53125 -33.234375 61.96875 -30.984375 C 64.71875 -31.472656 67.164062 -32.351562 69.3125 -33.625 C 71.46875 -34.894531 73.375 -36.425781 75.03125 -38.21875 C 76.6875 -40.019531 78.144531 -42.066406 79.40625 -44.359375 C 80.675781 -46.648438 81.84375 -49.097656 82.90625 -51.703125 L 87.03125 -50.65625 C 85.550781 -46.632812 83.835938 -43.210938 81.890625 -40.390625 C 79.953125 -37.578125 77.875 -35.21875 75.65625 -33.3125 C 73.4375 -31.40625 71.109375 -29.941406 68.671875 -28.921875 C 66.242188 -27.898438 63.726562 -27.210938 61.125 -26.859375 C 60.132812 -23.398438 58.828125 -20.15625 57.203125 -17.125 C 55.585938 -14.09375 53.613281 -11.445312 51.28125 -9.1875 C 48.957031 -6.9375 46.257812 -5.160156 43.1875 -3.859375 C 40.125 -2.554688 36.691406 -1.90625 32.890625 -1.90625 C 29.710938 -1.90625 26.519531 -2.554688 23.3125 -3.859375 C 20.101562 -5.160156 17.210938 -7.164062 14.640625 -9.875 C 12.066406 -12.59375 9.988281 -16.015625 8.40625 -20.140625 C 6.820312 -24.265625 6.03125 -29.179688 6.03125 -34.890625 C 6.03125 -38.628906 6.46875 -42.296875 7.34375 -45.890625 C 8.226562 -49.484375 9.460938 -52.882812 11.046875 -56.09375 C 12.628906 -59.300781 14.515625 -62.296875 16.703125 -65.078125 C 18.890625 -67.867188 21.253906 -70.285156 23.796875 -72.328125 L 25.375 -69.6875 C 23.757812 -68.207031 22.207031 -66.375 20.71875 -64.1875 C 19.238281 -62 17.898438 -59.582031 16.703125 -56.9375 C 15.503906 -54.300781 14.550781 -51.519531 13.84375 -48.59375 C 13.144531 -45.664062 12.796875 -42.753906 12.796875 -39.859375 C 12.796875 -34.148438 13.515625 -29.359375 14.953125 -25.484375 C 16.398438 -21.609375 18.25 -18.488281 20.5 -16.125 C 22.757812 -13.757812 25.300781 -12.066406 28.125 -11.046875 C 30.945312 -10.023438 33.695312 -9.515625 36.375 -9.515625 Z M 42.40625 -73.59375 C 40.5 -73.59375 38.734375 -73.1875 37.109375 -72.375 C 35.492188 -71.570312 34.085938 -70.460938 32.890625 -69.046875 C 31.691406 -67.640625 30.738281 -65.945312 30.03125 -63.96875 C 29.320312 -62 28.96875 -59.816406 28.96875 -57.421875 C 28.96875 -53.265625 29.671875 -49.523438 31.078125 -46.203125 C 32.492188 -42.890625 34.414062 -40.070312 36.84375 -37.75 C 39.28125 -35.425781 42.117188 -33.644531 45.359375 -32.40625 C 48.609375 -31.175781 52.097656 -30.5625 55.828125 -30.5625 L 57.84375 -30.5625 C 58.40625 -32.75 58.789062 -35.039062 59 -37.4375 C 59.21875 -39.832031 59.328125 -42.441406 59.328125 -45.265625 C 59.179688 -50.691406 58.628906 -55.21875 57.671875 -58.84375 C 56.722656 -62.476562 55.507812 -65.382812 54.03125 -67.5625 C 52.550781 -69.75 50.804688 -71.300781 48.796875 -72.21875 C 46.785156 -73.132812 44.65625 -73.59375 42.40625 -73.59375 Z M 42.40625 -73.59375 "/></g></g><g transform="translate(475.006978, 161.256757)"><g><path d="M -12.375 -89.03125 C -11.3125 -88.394531 -10.039062 -87.65625 -8.5625 -86.8125 C -7.082031 -85.96875 -5.351562 -85.15625 -3.375 -84.375 C -1.40625 -83.601562 0.789062 -82.882812 3.21875 -82.21875 C 5.65625 -81.550781 8.316406 -81.070312 11.203125 -80.78125 C 12.191406 -87.132812 13.460938 -92.863281 15.015625 -97.96875 C 16.566406 -103.082031 18.273438 -107.453125 20.140625 -111.078125 C 22.015625 -114.710938 23.953125 -117.5 25.953125 -119.4375 C 27.960938 -121.375 29.921875 -122.34375 31.828125 -122.34375 C 34.015625 -122.34375 35.566406 -121.492188 36.484375 -119.796875 C 37.398438 -118.109375 37.859375 -115.859375 37.859375 -113.046875 C 37.859375 -110.992188 37.644531 -108.734375 37.21875 -106.265625 C 36.800781 -103.804688 36.238281 -101.179688 35.53125 -98.390625 C 34.820312 -95.609375 33.972656 -92.71875 32.984375 -89.71875 C 32.003906 -86.726562 30.984375 -83.75 29.921875 -80.78125 C 36.972656 -81.414062 43.476562 -82.578125 49.4375 -84.265625 C 55.394531 -85.960938 60.554688 -87.691406 64.921875 -89.453125 L 66.9375 -85.546875 C 61.15625 -83.359375 55.160156 -81.398438 48.953125 -79.671875 C 42.753906 -77.953125 35.8125 -76.878906 28.125 -76.453125 C 26.363281 -71.867188 24.546875 -67.515625 22.671875 -63.390625 C 20.804688 -59.265625 19.097656 -55.6875 17.546875 -52.65625 C 17.617188 -48.707031 17.847656 -44.425781 18.234375 -39.8125 C 18.628906 -35.195312 19.40625 -30.878906 20.5625 -26.859375 C 21.726562 -22.835938 23.382812 -19.488281 25.53125 -16.8125 C 27.6875 -14.132812 30.523438 -12.796875 34.046875 -12.796875 C 37.003906 -12.796875 39.71875 -14.046875 42.1875 -16.546875 C 44.65625 -19.046875 46.925781 -22.21875 49 -26.0625 C 51.082031 -29.90625 53.003906 -34.117188 54.765625 -38.703125 C 56.535156 -43.285156 58.195312 -47.617188 59.75 -51.703125 L 63.875 -50.65625 C 62.882812 -48.113281 61.820312 -45.253906 60.6875 -42.078125 C 59.5625 -38.910156 58.296875 -35.6875 56.890625 -32.40625 C 55.484375 -29.132812 53.929688 -25.960938 52.234375 -22.890625 C 50.546875 -19.828125 48.675781 -17.078125 46.625 -14.640625 C 44.582031 -12.210938 42.328125 -10.273438 39.859375 -8.828125 C 37.398438 -7.378906 34.722656 -6.65625 31.828125 -6.65625 C 28.722656 -6.65625 25.8125 -7.359375 23.09375 -8.765625 C 20.382812 -10.179688 18.023438 -12.703125 16.015625 -16.328125 C 14.003906 -19.960938 12.414062 -24.898438 11.25 -31.140625 C 10.09375 -37.378906 9.515625 -45.328125 9.515625 -54.984375 C 9.515625 -62.742188 9.9375 -69.96875 10.78125 -76.65625 C 4.71875 -77.4375 -0.375 -78.65625 -4.5 -80.3125 C -8.625 -81.96875 -11.8125 -83.570312 -14.0625 -85.125 Z M 32.46875 -116.734375 C 31.832031 -116.734375 30.878906 -116.097656 29.609375 -114.828125 C 28.335938 -113.566406 26.992188 -111.507812 25.578125 -108.65625 C 24.171875 -105.800781 22.816406 -102.0625 21.515625 -97.4375 C 20.210938 -92.820312 19.175781 -87.128906 18.40625 -80.359375 L 25.59375 -80.359375 C 26.863281 -83.890625 27.972656 -87.3125 28.921875 -90.625 C 29.867188 -93.9375 30.695312 -97.019531 31.40625 -99.875 C 32.113281 -102.726562 32.640625 -105.300781 32.984375 -107.59375 C 33.335938 -109.882812 33.515625 -111.769531 33.515625 -113.25 C 33.515625 -115.570312 33.164062 -116.734375 32.46875 -116.734375 Z M 17.546875 -61.125 C 18.742188 -63.59375 19.867188 -66.078125 20.921875 -68.578125 C 21.984375 -71.078125 23.007812 -73.628906 24 -76.234375 L 17.96875 -76.234375 C 17.832031 -73.984375 17.726562 -71.601562 17.65625 -69.09375 C 17.582031 -66.59375 17.546875 -64.003906 17.546875 -61.328125 Z M 17.546875 -61.125 "/></g></g><g transform="translate(524.812122, 161.256757)"><g><path d="M 48.109375 -2.4375 C 48.109375 -11.457031 48.53125 -19.878906 49.375 -27.703125 C 47.195312 -23.753906 45.082031 -20.507812 43.03125 -17.96875 C 40.988281 -15.4375 38.960938 -13.429688 36.953125 -11.953125 C 34.941406 -10.472656 32.914062 -9.445312 30.875 -8.875 C 28.832031 -8.3125 26.753906 -8.03125 24.640625 -8.03125 C 22.941406 -8.03125 21.019531 -8.296875 18.875 -8.828125 C 16.726562 -9.359375 14.703125 -10.429688 12.796875 -12.046875 C 10.890625 -13.671875 9.285156 -15.976562 7.984375 -18.96875 C 6.679688 -21.96875 6.03125 -25.972656 6.03125 -30.984375 C 6.03125 -36.203125 6.660156 -41.15625 7.921875 -45.84375 C 9.191406 -50.53125 10.640625 -54.671875 12.265625 -58.265625 C 14.097656 -62.492188 16.210938 -66.40625 18.609375 -70 L 22.515625 -68.625 C 22.378906 -68.414062 21.921875 -67.128906 21.140625 -64.765625 C 20.367188 -62.398438 19.539062 -59.4375 18.65625 -55.875 C 17.78125 -52.320312 16.972656 -48.410156 16.234375 -44.140625 C 15.492188 -39.878906 15.125 -35.773438 15.125 -31.828125 C 15.125 -25.910156 16.195312 -21.1875 18.34375 -17.65625 C 20.5 -14.132812 23.550781 -12.375 27.5 -12.375 C 29.613281 -12.375 31.691406 -13.078125 33.734375 -14.484375 C 35.773438 -15.898438 37.78125 -17.859375 39.75 -20.359375 C 41.726562 -22.859375 43.703125 -25.816406 45.671875 -29.234375 C 47.648438 -32.648438 49.59375 -36.40625 51.5 -40.5 C 52.832031 -47.476562 54.429688 -53.679688 56.296875 -59.109375 C 58.171875 -64.535156 60.128906 -69.15625 62.171875 -72.96875 L 66.09375 -71.90625 C 64.675781 -65.769531 63.4375 -59.6875 62.375 -53.65625 C 61.320312 -47.632812 60.425781 -41.769531 59.6875 -36.0625 C 58.945312 -30.351562 58.363281 -24.835938 57.9375 -19.515625 C 57.519531 -14.191406 57.207031 -9.203125 57 -4.546875 C 60.03125 -6.734375 62.863281 -9.164062 65.5 -11.84375 C 68.144531 -14.519531 70.738281 -17.691406 73.28125 -21.359375 C 75.820312 -25.023438 78.34375 -29.320312 80.84375 -34.25 C 83.34375 -39.1875 85.929688 -45.003906 88.609375 -51.703125 L 92.734375 -50.65625 C 89.984375 -43.53125 87.320312 -37.34375 84.75 -32.09375 C 82.175781 -26.84375 79.5 -22.222656 76.71875 -18.234375 C 73.9375 -14.253906 70.957031 -10.710938 67.78125 -7.609375 C 64.601562 -4.503906 61.007812 -1.546875 57 1.265625 C 56.78125 9.023438 56.070312 15.863281 54.875 21.78125 C 53.675781 27.707031 52.195312 32.875 50.4375 37.28125 C 48.675781 41.6875 46.703125 45.367188 44.515625 48.328125 C 42.328125 51.285156 40.140625 53.679688 37.953125 55.515625 C 35.773438 57.347656 33.644531 58.648438 31.5625 59.421875 C 29.476562 60.203125 27.695312 60.59375 26.21875 60.59375 C 23.613281 60.59375 21.269531 60.046875 19.1875 58.953125 C 17.113281 57.859375 15.332031 56.429688 13.84375 54.671875 C 12.363281 52.910156 11.238281 50.898438 10.46875 48.640625 C 9.695312 46.390625 9.3125 44.097656 9.3125 41.765625 C 9.3125 37.742188 10.28125 33.953125 12.21875 30.390625 C 14.15625 26.835938 16.742188 23.472656 19.984375 20.296875 C 23.222656 17.128906 26.941406 14.148438 31.140625 11.359375 C 35.335938 8.578125 39.691406 5.953125 44.203125 3.484375 C 45.535156 2.566406 46.835938 1.828125 48.109375 1.265625 Z M 26.4375 56.25 C 28.6875 56.25 30.992188 55.347656 33.359375 53.546875 C 35.722656 51.753906 37.910156 48.898438 39.921875 44.984375 C 41.929688 41.078125 43.65625 36.039062 45.09375 29.875 C 46.539062 23.707031 47.476562 16.285156 47.90625 7.609375 C 47.6875 7.753906 47.453125 7.878906 47.203125 7.984375 C 46.960938 8.085938 46.738281 8.242188 46.53125 8.453125 C 42.9375 10.710938 39.375 13.195312 35.84375 15.90625 C 32.320312 18.625 29.164062 21.535156 26.375 24.640625 C 23.59375 27.742188 21.320312 31.003906 19.5625 34.421875 C 17.800781 37.835938 16.921875 41.378906 16.921875 45.046875 C 16.921875 46.316406 17.148438 47.617188 17.609375 48.953125 C 18.066406 50.296875 18.71875 51.515625 19.5625 52.609375 C 20.40625 53.703125 21.410156 54.582031 22.578125 55.25 C 23.742188 55.914062 25.03125 56.25 26.4375 56.25 Z M 26.4375 56.25 "/></g></g></g></svg>